Coordinates
version=1
nRows=30
nColumns=30
inDegrees=yes

Units are S.I. units (second, meters, Newtons, ...)
Angles are in degrees.

endheader
time	floatyaw	floatroll	floatpitch	floatx	floaty	floatz	pro_sup_l	deviation_l	flexion_l	cmc_flexion_l	cmc_abduction_l	mp_flexion_l	ip_flexion_l	2mcp_flexion_l	2mcp_abduction_l	2pm_flexion_l	2md_flexion_l	3mcp_flexion_l	3mcp_abduction_l	3pm_flexion_l	3md_flexion_l	4mcp_flexion_l	4mcp_abduction_l	4pm_flexion_l	4md_flexion_l	5mcp_flexion_l	5mcp_abduction_l	5pm_flexion_l	5md_flexion_l
0.005000	-0.845308	-4.283240	94.249796	0.162216	-0.268588	0.157010	106.403192	22.545771	20.103232	-5.730296	38.473152	-15.694389	-20.780163	60.415392	13.714678	28.401725	33.912860	52.849030	7.969155	35.102534	47.885527	31.387442	-6.327949	72.744268	67.075279	25.908644	-10.405540	83.705743	57.977334
0.015000	-0.845308	-4.283240	94.249796	0.161630	-0.268009	0.156298	105.740923	22.194387	19.574488	-4.745025	38.408199	-16.253912	-23.756384	60.373146	13.659479	28.866232	35.563440	52.499265	7.883767	35.858212	49.860640	30.942123	-6.406342	73.222712	67.944565	25.508401	-10.223542	83.690736	58.147284
0.025000	-0.845308	-4.283240	94.249796	0.160966	-0.267413	0.155553	105.086278	21.849688	18.983531	-3.733006	38.466665	-16.703090	-26.943519	60.275040	13.618502	29.366181	37.370034	52.110835	7.802812	36.679676	51.942264	30.480715	-6.492568	73.728203	68.826484	25.112100	-10.055171	83.684363	58.340823
0.035000	-0.845308	-4.283240	94.249796	0.160262	-0.266849	0.154776	104.473619	21.528212	18.377858	-2.799108	38.598148	-17.035298	-30.114903	60.149566	13.597696	29.836004	39.251009	51.720959	7.731384	37.496123	53.981024	30.053610	-6.578481	74.203624	69.667042	24.756102	-9.903789	83.683148	58.534741
0.045000	-0.845308	-4.283240	94.249796	0.159558	-0.266354	0.153968	103.929832	21.238368	17.813051	-2.026961	38.760032	-17.241725	-33.041673	60.024850	13.595896	30.210370	41.099502	51.359668	7.672956	38.236542	55.822621	29.693981	-6.655625	74.594433	70.414693	24.457280	-9.770722	83.682374	58.709369
0.055000	-0.845308	-4.283240	94.249796	0.158886	-0.265956	0.153144	103.470755	20.982025	17.336563	-1.463832	38.926330	-17.315888	-35.537845	59.921820	13.606923	30.442856	42.801000	51.049951	7.628961	38.838175	57.346408	29.415104	-6.717605	74.862827	71.034827	24.216725	-9.656761	83.675246	58.851034
0.065000	-0.845308	-4.283240	94.249796	0.158263	-0.265667	0.152336	103.102365	20.759646	16.973497	-1.114504	39.086606	-17.262728	-37.492553	59.849226	13.623208	30.522650	44.249538	50.807547	7.598821	39.259302	58.487927	29.212714	-6.761491	74.998689	71.515263	24.028519	-9.563601	83.653785	58.951883
0.075000	-0.845308	-4.283240	94.249796	0.157695	-0.265485	0.151595	102.825464	20.575838	16.719467	-0.945424	39.239853	-17.105487	-38.883929	59.804389	13.639173	30.480042	45.363561	50.639951	7.580354	39.492848	59.241361	29.072136	-6.787982	75.023773	71.862312	23.887018	-9.493982	83.614328	59.008559
0.085000	-0.845308	-4.283240	94.249796	0.157181	-0.265397	0.150984	102.640133	20.440929	16.544315	-0.897897	39.388269	-16.884370	-39.773942	59.779323	13.652775	30.374540	46.104041	50.545622	7.570374	39.570960	59.648579	28.977444	-6.800522	74.985435	72.092490	23.788356	-9.450190	83.565002	59.020346
0.095000	-0.845308	-4.283240	94.249796	0.156726	-0.265380	0.150553	102.545548	20.366210	16.406549	-0.906490	39.533328	-16.646497	-40.285311	59.768079	13.664590	30.269525	46.488969	50.514527	7.565459	39.554182	59.783229	28.918265	-6.803824	74.940573	72.225618	23.727710	-9.431778	83.528403	58.987159
0.105000	-0.845308	-4.283240	94.249796	0.156344	-0.265409	0.150317	102.534087	20.355194	16.272446	-0.916972	39.674199	-16.432723	-40.563843	59.770400	13.675379	30.206829	46.592124	50.530049	7.562774	39.509352	59.734036	28.890468	-6.802338	74.936272	72.281857	23.696878	-9.433943	83.533779	58.909324
0.115000	-0.845308	-4.283240	94.249796	0.156052	-0.265459	0.150253	102.584745	20.396825	16.129874	-0.898323	39.807458	-16.268644	-40.735738	59.789269	13.684175	30.195136	46.520816	50.571323	7.560631	39.487655	59.588380	28.890594	-6.799173	74.995468	72.281481	23.684380	-9.447647	83.599933	58.791654
0.125000	-0.845308	-4.283240	94.249796	0.155861	-0.265511	0.150297	102.663587	20.465895	15.989114	-0.845520	39.927141	-16.163368	-40.875957	59.824493	13.688347	30.216950	46.381366	50.615679	7.558449	39.513021	59.417557	28.908633	-6.795837	75.112752	72.244807	23.676762	-9.461718	83.718706	58.650533
0.135000	-0.845308	-4.283240	94.249796	0.155763	-0.265552	0.150378	102.734009	20.531142	15.871015	-0.773337	40.025423	-16.113767	-41.002209	59.867819	13.685440	30.247181	46.249172	50.642045	7.556173	39.583626	59.266844	28.925739	-6.792752	75.260472	72.191011	23.659705	-9.466229	83.851703	58.517445
0.145000	-0.845308	-4.283240	94.249796	0.155729	-0.265581	0.150444	102.771047	20.566654	15.790945	-0.704784	40.094912	-16.109303	-41.096162	59.904189	13.675150	30.270206	46.156887	50.635857	7.553623	39.681811	59.153952	28.920035	-6.790026	75.401523	72.136741	23.619604	-9.455790	83.945656	58.432417
0.155000	-0.845308	-4.283240	94.249796	0.155716	-0.265602	0.150476	102.770248	20.560574	15.748913	-0.659393	40.132492	-16.134792	-41.137002	59.918985	13.659956	30.285313	46.103214	50.594067	7.550285	39.784880	59.076876	28.877228	-6.787919	75.503594	72.095499	23.546768	-9.431262	83.958844	58.428213
0.165000	-0.845308	-4.283240	94.249796	0.155687	-0.265621	0.150487	102.745776	20.517218	15.730830	-0.645643	40.142768	-16.172340	-41.125863	59.906244	13.644095	30.300203	46.073187	50.526946	7.545607	39.872260	59.026734	28.798535	-6.786763	75.549788	72.076942	23.439601	-9.399069	83.882648	58.514268
0.175000	-0.845308	-4.283240	94.249796	0.155625	-0.265645	0.150501	102.719926	20.452513	15.717893	-0.659403	40.138477	-16.204584	-41.088464	59.872021	13.631723	30.320675	46.055715	50.454192	7.539502	39.929228	58.997665	28.700339	-6.786528	75.542236	72.084958	23.307417	-9.368408	83.745293	58.670495
0.185000	-0.845308	-4.283240	94.249796	0.155535	-0.265672	0.150541	102.710834	20.385775	15.696712	-0.687920	40.136585	-16.218744	-41.059724	59.830904	13.625319	30.345025	46.049049	50.396566	7.532582	39.948913	58.988764	28.606272	-6.786556	75.497780	72.115982	23.169314	-9.347563	83.596460	58.854491
0.195000	-0.845308	-4.283240	94.249796	0.155440	-0.265696	0.150609	102.724648	20.332037	15.664137	-0.716934	40.151497	-16.208923	-41.064645	59.798614	13.624965	30.365619	46.055192	50.367643	7.525914	39.932804	58.999793	28.537204	-6.785752	75.438330	72.160438	23.048301	-9.340862	83.482873	59.017665
0.205000	-0.845308	-4.283240	94.249796	0.155362	-0.265711	0.150692	102.754854	20.298026	15.625444	-0.737288	40.189004	-16.175502	-41.108012	59.785533	13.628626	30.374337	46.071651	50.370073	7.520484	39.889105	59.026535	28.504303	-6.783205	75.381354	72.207348	22.962933	-9.347441	83.428643	59.122374
0.215000	-0.845308	-4.283240	94.249796	0.155314	-0.265712	0.150764	102.787527	20.282552	15.588714	-0.747729	40.244445	-16.123043	-41.176137	59.794113	13.633208	30.367160	46.088549	50.397462	7.516737	39.829032	59.060263	28.507156	-6.778771	75.335234	72.248802	22.920809	-9.362088	83.429345	59.153493
0.225000	-0.845308	-4.283240	94.249796	0.155295	-0.265700	0.150807	102.808935	20.279862	15.559440	-0.753080	40.306010	-16.058414	-41.246196	59.820289	13.635932	30.345136	46.093102	50.439862	7.514497	39.762020	59.091530	28.536521	-6.773223	75.299992	72.281851	22.917296	-9.377565	83.460146	59.120527
0.235000	-0.845308	-4.283240	94.249796	0.155294	-0.265680	0.150809	102.811620	20.283559	15.538038	-0.759899	40.360925	-15.989266	-41.296720	59.857182	13.635425	30.312044	46.076976	50.489466	7.513224	39.691702	59.115039	28.579945	-6.767875	75.270612	72.308345	22.939327	-9.387271	83.491311	59.049945
0.245000	-0.845308	-4.283240	94.249796	0.155296	-0.265659	0.150774	102.796495	20.289147	15.520700	-0.772649	40.400935	-15.922511	-41.314760	59.898793	13.631990	30.271435	46.039980	50.543403	7.512393	39.615219	59.131714	28.627180	-6.763945	75.240927	72.333571	22.971324	-9.387251	83.502081	58.972223
0.255000	-0.845308	-4.283240	94.249796	0.155290	-0.265646	0.150714	102.770742	20.294557	15.502322	-0.792068	40.424542	-15.863198	-41.298087	59.941778	13.626939	30.225832	45.987158	50.602243	7.511739	39.527358	59.146236	28.672306	-6.762051	75.207701	72.363135	23.000147	-9.376964	83.486928	58.910742
0.265000	-0.845308	-4.283240	94.249796	0.155270	-0.265640	0.150648	102.743354	20.299278	15.479526	-0.815617	40.435833	-15.814311	-41.253354	59.984708	13.621501	30.178734	45.922006	50.665709	7.511248	39.427730	59.161374	28.712242	-6.762088	75.173829	72.398509	23.017564	-9.358852	83.453727	58.876696
0.275000	-0.845308	-4.283240	94.249796	0.155237	-0.265642	0.150587	102.720991	20.303339	15.452090	-0.839044	40.441516	-15.776936	-41.192637	60.025956	13.616147	30.137213	45.841714	50.729263	7.510933	39.325810	59.173006	28.744593	-6.763482	75.148055	72.434470	23.020510	-9.337149	83.417431	58.868952
0.285000	-0.845308	-4.283240	94.249796	0.155196	-0.265648	0.150540	102.706192	20.306975	15.422260	-0.858191	40.448038	-15.750069	-41.130156	60.062303	13.610764	30.111527	45.739285	50.784744	7.510626	39.238705	59.170586	28.767723	-6.765539	75.140012	72.461743	23.010243	-9.316542	83.392992	58.876373
0.295000	-0.845308	-4.283240	94.249796	0.155153	-0.265654	0.150507	102.698198	20.310903	15.392788	-0.870436	40.459807	-15.730426	-41.078994	60.089594	13.605348	30.110046	45.612246	50.824977	7.509982	39.181227	59.144854	28.782507	-6.767613	75.153419	72.473695	22.991445	-9.301031	83.389611	58.882537
